<?xml version="1.0" encoding="utf-8"?>
<!-- Generator: Adobe Illustrator 25.0.0, SVG Export Plug-In . SVG Version: 6.00 Build 0)  -->
<svg version="1.1" id="Layer_1" xmlns="http://www.w3.org/2000/svg" xmlns:xlink="http://www.w3.org/1999/xlink" x="0px" y="0px"
	 viewBox="0 0 470.4 127.5" style="enable-background:new 0 0 470.4 127.5;" xml:space="preserve">
<style type="text/css">
	.st0{fill:#D112A8;}
	.st1{fill:#A5A5A5;}
</style>
<g>
	<path class="st0" d="M119.5,33.1c-0.3,0-0.6,0-1,0c-22.4,0-44.8,0-67.2,0c-1.7,0-3.3,0.2-4.9,0.9c-1.1,0.5-2.1,1.2-3,2
		C33.2,46.4,22.7,56.8,12.4,67.2c-2.8,2.9-3.6,6.4-2.5,10.2c1.2,3.8,3.9,6.2,7.8,7c3.4,0.7,6.5-0.2,9.1-2.6c0.3-0.3,0.5-0.5,0.8-0.8
		c8.9-8.9,17.9-17.9,26.8-26.8c0.4-0.4,0.9-0.6,1.5-0.6c22.3,0,44.6,0,66.9,0c1.1,0,2.2-0.1,3.2-0.4c0.5-0.2,0.6-0.1,0.7,0.5
		c0.2,1.3,0.4,2.6,0.5,3.9c0.2,2.2,0.3,4.4,0.3,6.5c-0.2,14.6-4.7,27.7-13.8,39.2c-8.1,10.2-18.3,17.2-30.7,21.2
		c-4.1,1.3-8.3,2.2-12.6,2.6c-4.1,0.4-8.2,0.5-12.3,0.1c-8.9-0.8-17.2-3.3-25-7.6c-0.1-0.1-0.2-0.1-0.4-0.2c0.1-0.3,0.4-0.5,0.6-0.7
		c7.7-7.7,15.4-15.4,23.1-23.1c3.8-3.8,7.6-7.6,11.4-11.4c0.4-0.4,0.7-0.5,1.3-0.5c4,0,7.9,0,11.9,0c4.8,0,8.9-3.3,10.1-7.9
		c1.4-5.9-2.7-11.8-8.7-12.6c-0.6-0.1-1.2-0.1-1.8-0.1c-5.4,0-10.7,0-16.1,0c-3.1,0-5.7,1.1-8,3.3c-13.1,13.1-26.2,26.2-39.3,39.3
		c-0.8,0.8-0.8,0.8-1.5,0c-7.2-8.4-12-17.9-14.3-28.7c-0.7-3.2-1.1-6.5-1.3-9.7C-0.1,63.7,0,60.4,0.4,57c0.8-7.6,2.8-14.9,6.3-21.7
		C15.1,19,28.1,8,45.8,2.6c3.8-1.2,7.8-1.9,11.8-2.3c3.9-0.4,7.8-0.4,11.6-0.1c13.9,1.3,26.1,6.4,36.6,15.6
		c5.4,4.7,9.9,10.2,13.4,16.4C119.3,32.5,119.5,32.7,119.5,33.1z M96.8,73.3c0,5.6,4.6,10.3,10.3,10.3c5.5,0,10.3-4.4,10.3-10.3
		c0-5.9-4.8-10.3-10.4-10.3C101.4,63,96.8,67.7,96.8,73.3z"/>
	<path class="st1" d="M394.9,70.8c0,9.4,0,18.7,0,28.1c0,1.3,0,1.1-1.1,1.1c-3,0-6.1,0-9.1,0c-0.5,0-0.9-0.1-1.1-0.6
		c-0.1-0.2-0.2-0.3-0.3-0.5c-0.1-0.3-0.4-0.4-0.7-0.3c-2,0.4-4,0.7-6,1.2c-0.9,0.2-1.7,0.1-2.6,0.1c-2.7,0-5.3,0-8,0
		c-0.7,0-1.4,0-2,0c-2.9-0.2-5.6-0.9-7.9-2.7c-2.1-1.7-3.3-3.9-3.7-6.6c-0.1-0.9-0.1-1.7-0.1-2.6c0-6.2,0-12.4,0-18.6
		c0-2.9,1-5.5,3.3-7.4c1.5-1.3,3.2-2,5.1-2.5c1.4-0.3,2.9-0.5,4.4-0.5c4.3,0,8.7,0,13,0c0.5,0,1.1,0,1.6,0c0.9,0,0.9,0,0.9-0.9
		c0-5.2,0-10.4,0-15.6c0-0.2,0-0.4,0-0.7c0-0.3,0.1-0.4,0.4-0.4c0.2,0,0.3,0,0.5,0c4.1,0,8.2,0,12.3,0c0.1,0,0.2,0,0.3,0
		c0.4,0,0.6,0.1,0.6,0.5c0,0.3,0,0.7,0,1C394.9,52.2,394.9,61.5,394.9,70.8z M380.7,79.5c0-3.2,0-6.4,0-9.7c0-0.2,0-0.4,0-0.7
		c0-0.3-0.1-0.4-0.4-0.4c-0.2,0-0.4,0-0.6,0c-2.7-0.1-5.4,0.1-8,0.1c-0.4,0-0.8,0-1.2,0c-1.8,0.1-2.9,1-3.2,2.8c0,0.2,0,0.4,0,0.7
		c0,4.9,0,9.8,0,14.8c0,2.3,1.2,3.1,3.1,3.4c0.3,0,0.5,0,0.8,0c1.4,0,2.7-0.1,4.1-0.2c1.6,0,3.2-0.2,4.8-0.2c0.6,0,0.6,0,0.6-0.6
		c0-0.2,0-0.3,0-0.5C380.7,85.9,380.7,82.7,380.7,79.5z"/>
	<path class="st0" d="M445.6,85.1c0,4.6,0,9.1,0,13.7c0,0.2,0,0.3,0,0.5c0,0.8,0,0.8-0.8,0.8c-3.5,0-7,0-10.5,0
		c-0.9,0-0.8,0.1-1-0.7c-0.1-0.4-0.3-0.5-0.8-0.5c-1.9,0.3-3.9,0.6-5.8,0.9c-1,0.2-1.9,0.2-2.9,0.1c-2.5,0-5,0-7.5,0
		c-2.2,0-4.4-0.3-6.4-1.1c-4.1-1.7-6.5-4.7-6.7-9.1c-0.1-2-0.2-4.1,0.1-6.1c0.4-3.2,2.1-5.6,4.9-7.3c1.9-1.1,4.1-1.6,6.3-1.8
		c1.1-0.1,2.2-0.1,3.3-0.1c4.3,0,8.6,0,13,0c0.2,0,0.4,0,0.6,0c0.4,0,0.5-0.1,0.5-0.5c0.1-2.3-0.9-3.9-3.1-4.7
		c-1.2-0.4-2.5-0.6-3.8-0.6c-4.7,0-9.5,0.1-14.2,0.4c-1.1,0.1-2.3,0.1-3.4,0.2c-0.6,0-0.6,0-0.7-0.6c-0.4-2.8-0.8-5.6-1.1-8.4
		c0-0.1,0-0.3,0-0.4c-0.1-0.4,0.1-0.5,0.5-0.6c1.7-0.3,3.5-0.6,5.3-0.8c3.2-0.4,6.5-0.7,9.7-0.9c3.4-0.2,6.7-0.4,10.1-0.2
		c1.9,0.1,3.8,0.4,5.6,1c4.4,1.4,7.1,4.3,8.2,8.7c0.6,2.2,0.7,4.4,0.8,6.7C445.6,77.4,445.6,81.2,445.6,85.1z M426.5,83
		c-1.4,0-2.8,0-4.3,0c-0.5,0-1,0-1.5,0.1c-1.4,0.2-2.2,1.1-2.5,2.5c-0.1,0.9-0.1,1.7,0,2.6c0.2,1.4,0.9,2.2,2.2,2.5
		c0.5,0.1,1.1,0.2,1.6,0.1c3-0.2,6.1-0.3,9.1-0.5c0.6,0,0.6,0,0.6-0.6c0-2,0-4,0-6c0-0.7,0-0.7-0.8-0.7C429.5,83,428,83,426.5,83z"
		/>
	<path class="st1" d="M252.4,85.1c0,5.3,0,9.6,0,13.9c0,0.2,0,0.4,0,0.7c0,0.3-0.1,0.5-0.4,0.4c-0.2,0-0.3,0-0.5,0
		c-3.4,0-6.9,0-10.3,0c-0.8,0-0.8,0-1.1-0.8c-0.1-0.3-0.2-0.5-0.7-0.4c-2.3,0.4-4.6,0.7-6.9,1.1c-0.7,0.1-1.3,0-2,0
		c-2.5,0-5,0-7.5,0c-1.5,0-3-0.2-4.5-0.5c-2.2-0.5-4.1-1.5-5.7-3.1c-1.6-1.7-2.5-3.7-2.8-6c-0.2-2.3-0.3-4.7,0-7
		c0.4-2.9,1.9-5.2,4.3-6.7c1.7-1.1,3.6-1.6,5.5-1.9c1.5-0.2,3-0.3,4.5-0.3c4.4,0,8.7,0,13.1,0c0.2,0,0.4,0,0.6,0
		c0.4,0,0.5-0.2,0.5-0.5c0.1-2.1-1-3.9-2.9-4.6c-0.8-0.3-1.7-0.5-2.6-0.6c-1.2-0.1-2.5-0.2-3.7-0.1c-2.3,0.1-4.5,0.1-6.8,0.2
		c-2.4,0.1-4.8,0.2-7.2,0.3c-0.4,0-0.9,0.1-1.3,0.1c-0.5,0-0.6-0.1-0.7-0.6c-0.2-1.3-0.3-2.5-0.5-3.8c-0.2-1.5-0.4-3-0.6-4.5
		c0-0.2,0-0.3-0.1-0.5c-0.1-0.4,0.1-0.5,0.5-0.6c1.3-0.2,2.6-0.4,3.9-0.6c1.8-0.2,3.5-0.4,5.3-0.6c1.2-0.1,2.5-0.2,3.7-0.3
		c4-0.3,7.9-0.5,11.9-0.3c2.1,0.1,4.2,0.4,6.2,1.1c4.2,1.4,6.8,4.3,7.9,8.5c0.4,1.4,0.6,2.9,0.7,4.4
		C252.5,76.1,252.3,81.1,252.4,85.1z M233.2,83c-1.4,0-2.9,0-4.3,0c0,0-0.1,0-0.1,0c-0.7,0-1.4,0.1-2,0.3c-1,0.4-1.6,1.1-1.8,2.1
		c-0.1,0.7-0.2,1.5-0.1,2.2c0.1,1.6,0.5,2.6,2.5,3.1c0.3,0.1,0.7,0.1,1.1,0.1c1,0,1.9-0.1,2.9-0.1c2.2-0.2,4.4-0.3,6.6-0.4
		c0.6,0,0.7-0.1,0.7-0.7c0-1.9,0-3.9,0-5.8c0-0.8,0-0.8-0.8-0.8C236.3,83,234.8,83,233.2,83z"/>
	<path class="st1" d="M343,85.3c0,4.5,0,9,0,13.5c0,0.2,0,0.4,0,0.6c0,0.6,0,0.6-0.7,0.6c-3.6,0-7.2,0-10.8,0
		c-0.5,0-0.6-0.2-0.8-0.6c-0.2-0.6-0.2-0.6-0.9-0.5c-2.3,0.3-4.5,0.7-6.8,1.1c-0.6,0.1-1.2-0.1-1.8,0c-2.6,0-5.2,0-7.9,0
		c-2.6,0-5.1-0.5-7.4-1.8c-2.9-1.6-4.8-4.1-5.2-7.4c-0.3-2.6-0.3-5.1,0-7.7c0.5-3.1,2.2-5.4,4.9-6.8c2-1.1,4.2-1.6,6.4-1.7
		c5.3-0.3,10.6-0.1,15.9-0.1c1.2,0,1.1,0.1,1.1-1.1c0-2.1-1.2-3.6-3.4-4.2c-1.2-0.3-2.4-0.5-3.6-0.5c-2.6,0-5.2,0.1-7.9,0.1
		c-2.8,0.1-5.7,0.2-8.5,0.3c-0.4,0-0.7,0.1-1.1,0.1c-0.4,0-0.6-0.1-0.6-0.5c-0.2-1.6-0.4-3.1-0.6-4.7c-0.2-1.2-0.3-2.5-0.5-3.7
		c-0.1-1-0.1-1,0.9-1.2c2.2-0.3,4.4-0.6,6.6-0.9c2.7-0.3,5.3-0.5,8-0.7c3.4-0.3,6.9-0.4,10.3-0.2c2.2,0.1,4.4,0.5,6.5,1.4
		c3.2,1.3,5.4,3.6,6.6,6.9c0.7,2,1.1,4.1,1.1,6.2C343,76.2,343,80.8,343,85.3C343,85.3,343,85.3,343,85.3z M323.9,83
		c-1.3,0-2.5,0-3.8,0c-0.6,0-1.3,0-1.9,0.1c-1.6,0.2-2.6,1.3-2.6,2.9c0,0.6,0,1.1,0,1.7c0.1,1.8,1.1,2.9,2.9,3c0.3,0,0.7,0,1,0
		c0.9,0,1.7-0.1,2.6-0.1c2.2-0.2,4.4-0.2,6.5-0.4c0.6,0,0.6,0,0.6-0.6c0-2,0-4,0-6.1c0-0.6,0-0.6-0.7-0.6C327,83,325.4,83,323.9,83z
		"/>
	<path class="st1" d="M192.4,83.9c0,5,0,9.9,0,14.9c0,0.2,0,0.4,0,0.6c0,0.3-0.1,0.5-0.5,0.5c-0.2,0-0.3,0-0.5,0c-4.5,0-9,0-13.4,0
		c-0.2,0-0.3,0-0.5,0c-0.3,0-0.5-0.1-0.5-0.5c0-0.2,0-0.4,0-0.7c0-9.9,0-19.9,0-29.8c0-1.2,0.1-1.1-1.1-1.1c-1.8,0-3.6,0-5.3,0
		c-0.7,0-0.7,0-0.7-0.7c0-2.6,0-5.2,0-7.9c0-0.6,0.1-0.7,0.7-0.7c1.3,0,2.6-0.2,3.8-0.2c0.7,0,1.3-0.1,2-0.2c0.6,0,0.6,0,0.6-0.6
		c0-1.5,0-3,0-4.5c0-1.5,0.1-3,0.4-4.5c1-4.6,3.9-7.4,8.4-8.6c1.7-0.4,3.4-0.6,5.2-0.7c2.4-0.1,4.8,0.1,7.2,0.2
		c2.3,0.1,4.6,0.3,6.9,0.6c0.1,0,0.1,0,0.2,0c0.8,0.1,0.8,0.1,0.7,1c-0.4,2.6-0.8,5.2-1.2,7.8c-0.1,0.8-0.1,0.8-1,0.8
		c-2.3,0-4.6,0-7,0c-0.7,0-1.4,0.1-2,0.3c-1.1,0.3-1.8,1-2.1,2c-0.2,0.6-0.3,1.1-0.3,1.7c0,1.2,0,2.5,0,3.7c0,0.7,0,0.7,0.7,0.7
		c3,0,5.9,0,8.9,0c1.1,0,1-0.1,1,1c0,2.6,0,5.1,0,7.7c0,1,0.1,1-1,1c-2.8,0-5.7,0-8.5,0c-0.2,0-0.4,0-0.6,0c-0.3,0-0.4,0.2-0.4,0.5
		c0,0.2,0,0.4,0,0.7C192.4,74,192.4,78.9,192.4,83.9z"/>
	<path class="st1" d="M263.3,79c0-6.5,0-13.1,0-19.6c0-0.2,0-0.4,0-0.6c0-0.6,0-0.6,0.7-0.6c3.6,0,7.1,0,10.7,0
		c0.5,0,0.7,0.1,0.8,0.6c0.3,1,0.6,2,0.9,3c0.2,0.7,0.2,0.7,0.8,0.3c1.5-0.9,3.1-1.8,4.8-2.4c2-0.7,4.1-1.2,6.3-1.4
		c2.2-0.2,4.3-0.1,6.5-0.1c0.7,0,0.8,0,0.7,0.7c-0.3,2.1-0.5,4.1-0.8,6.2c-0.1,1.1-0.3,2.3-0.4,3.4c0,0.4-0.2,0.5-0.6,0.5
		c-1.1,0-2.2,0-3.4,0c-2.9-0.1-5.8,0.5-8.7,1.1c-0.8,0.2-1.6,0.4-2.5,0.6c-0.3,0.1-0.5,0.2-0.5,0.6c0,0.2,0,0.4,0,0.7c0,9,0,18,0,27
		c0,1.1,0.1,1-1.1,1c-4.4,0-8.8,0-13.2,0c-0.2,0-0.4,0-0.6,0c-0.3,0-0.4-0.2-0.4-0.5c0-0.2,0-0.4,0-0.7
		C263.3,92.2,263.3,85.6,263.3,79z"/>
	<path class="st0" d="M455,79c0-6.5,0-13,0-19.5c0-0.2,0-0.3,0-0.5c0-0.8,0-0.8,0.8-0.8c4.5,0,9.1,0,13.6,0c0.1,0,0.3,0,0.4,0
		c0.3,0,0.4,0.1,0.4,0.4c0,0.2,0,0.4,0,0.6c0,13.2,0,26.5,0,39.7c0,0.1,0,0.1,0,0.2c0,0.8,0,0.8-0.8,0.8c-4.5,0-9.1,0-13.6,0
		c-0.1,0-0.3,0-0.4,0c-0.3,0-0.4-0.1-0.4-0.4c0-0.2,0-0.4,0-0.7C455,92.3,455,85.7,455,79z"/>
	<path class="st0" d="M462.6,40.6c1.3,0,2.5,0,3.8,0c0.3,0,0.5,0,0.8,0c1.8,0.1,2.8,1,3,2.7c0.1,0.4,0.1,0.8,0.1,1.2
		c0,2.1,0.1,4.1-0.1,6.2c0,0.1,0,0.2,0,0.3c-0.2,1.7-1.2,2.6-2.9,2.8c-0.2,0-0.5,0-0.7,0c-2.6,0-5.2,0-7.9,0c-0.3,0-0.6,0-0.9,0
		c-1.7-0.2-2.6-1.1-2.8-2.8c0-0.3-0.1-0.7-0.1-1c0-2.2-0.1-4.3,0.1-6.5c0-0.2,0.1-0.5,0.1-0.7c0.4-1.5,1.3-2.2,2.8-2.3
		c1-0.1,2,0,2.9,0C461.4,40.6,462,40.6,462.6,40.6z"/>
</g>
</svg>
